<?xml version="1.0" encoding="UTF-8" standalone="no"?>
<!-- Created with Inkscape (http://www.inkscape.org/) -->

<svg
   xmlns:dc="http://purl.org/dc/elements/1.1/"
   xmlns:cc="http://creativecommons.org/ns#"
   xmlns:rdf="http://www.w3.org/1999/02/22-rdf-syntax-ns#"
   xmlns:svg="http://www.w3.org/2000/svg"
   xmlns="http://www.w3.org/2000/svg"
   version="1.1"
   width="745.65448"
   height="452.96909"
   id="svg2">
  <defs
     id="defs4" />
  <metadata
     id="metadata7">
    <rdf:RDF>
      <cc:Work
         rdf:about="">
        <dc:format>image/svg+xml</dc:format>
        <dc:type
           rdf:resource="http://purl.org/dc/dcmitype/StillImage" />
        <dc:title></dc:title>
      </cc:Work>
    </rdf:RDF>
  </metadata>
  <g
     transform="translate(-315.74418,-237.30621)"
     id="layer1">
    <g
       transform="translate(293.93873,216.32597)"
       id="g2989">
      <path
         d="m 189.81604,409.0394 c 0,-4.53863 3.69467,-8.2333 8.2333,-8.2333 l 122.95563,0 c 4.53863,0 8.2333,3.69467 8.2333,8.2333 l 0,32.93321 c 0,4.53863 -3.69467,8.2333 -8.2333,8.2333 l -122.95563,0 c -4.53863,0 -8.2333,-3.69467 -8.2333,-8.2333 z"
         id="path2991"
         style="fill:#c5e0b4;fill-opacity:1;fill-rule:evenodd;stroke:none" />
      <path
         d="m 189.81604,409.0394 c 0,-4.53863 3.69467,-8.2333 8.2333,-8.2333 l 122.95563,0 c 4.53863,0 8.2333,3.69467 8.2333,8.2333 l 0,32.93321 c 0,4.53863 -3.69467,8.2333 -8.2333,8.2333 l -122.95563,0 c -4.53863,0 -8.2333,-3.69467 -8.2333,-8.2333 z"
         id="path2993"
         style="fill:none;stroke:#000000;stroke-width:1.25656307px;stroke-linecap:butt;stroke-linejoin:miter;stroke-miterlimit:4;stroke-opacity:1;stroke-dasharray:none" />
      <text
         x="194.01588"
         y="434.42502"
         id="text2995"
         xml:space="preserve"
         style="font-size:22.5056076px;font-style:normal;font-weight:normal;text-align:start;text-anchor:start;fill:#000000;font-family:Verdana">User Blocks</text>
      <path
         d="m 394.41076,409.88336 0,63.5971 137.67805,0 0,-63.5971 -137.67805,0 z"
         id="path2997"
         style="fill:#d6dce5;fill-opacity:1;fill-rule:evenodd;stroke:none" />
      <path
         d="m 394.41076,409.88336 137.67805,0 0,63.5971 -137.67805,0 z"
         id="path2999"
         style="fill:none;stroke:#000000;stroke-width:0.93773359px;stroke-linecap:butt;stroke-linejoin:round;stroke-opacity:1;stroke-dasharray:none" />
      <text
         x="404.30261"
         y="436.80951"
         id="text3001"
         xml:space="preserve"
         style="font-size:22.5056076px;font-style:normal;font-weight:normal;text-align:start;text-anchor:start;fill:#000000;font-family:Verdana">U</text>
      <text
         x="420.8067"
         y="436.80951"
         id="text3003"
         xml:space="preserve"
         style="font-size:22.5056076px;font-style:normal;font-weight:normal;text-align:start;text-anchor:start;fill:#000000;font-family:Verdana">ser block</text>
      <text
         x="404.15256"
         y="463.81622"
         id="text3005"
         xml:space="preserve"
         style="font-size:22.5056076px;font-style:normal;font-weight:normal;text-align:start;text-anchor:start;fill:#000000;font-family:Verdana">Info (out) </text>
      <path
         d="m 298.12427,320.27354 c 0,-4.53863 3.69467,-8.2333 8.2333,-8.2333 l 97.78686,0 c 4.55739,0 8.2333,3.69467 8.2333,8.2333 l 0,32.9332 c 0,4.53863 -3.67591,8.21455 -8.2333,8.21455 l -97.78686,0 c -4.53863,0 -8.2333,-3.67592 -8.2333,-8.21455 z"
         id="path3007"
         style="fill:#c5e0b4;fill-opacity:1;fill-rule:evenodd;stroke:none" />
      <path
         d="m 298.12427,320.27354 c 0,-4.53863 3.69467,-8.2333 8.2333,-8.2333 l 97.78686,0 c 4.55739,0 8.2333,3.69467 8.2333,8.2333 l 0,32.9332 c 0,4.53863 -3.67591,8.21455 -8.2333,8.21455 l -97.78686,0 c -4.53863,0 -8.2333,-3.67592 -8.2333,-8.21455 z"
         id="path3009"
         style="fill:none;stroke:#000000;stroke-width:1.25656307px;stroke-linecap:butt;stroke-linejoin:miter;stroke-miterlimit:4;stroke-opacity:1;stroke-dasharray:none" />
      <text
         x="333.04184"
         y="345.63574"
         id="text3011"
         xml:space="preserve"
         style="font-size:22.5056076px;font-style:normal;font-weight:normal;text-align:start;text-anchor:start;fill:#000000;font-family:Verdana">Join</text>
      <path
         d="m 378.30049,230.71998 c 0,-4.53863 3.69467,-8.2333 8.23331,-8.2333 l 97.78686,0 c 4.55738,0 8.2333,3.69467 8.2333,8.2333 l 0,32.9332 c 0,4.53863 -3.67592,8.21455 -8.2333,8.21455 l -97.78686,0 c -4.53864,0 -8.23331,-3.67592 -8.23331,-8.21455 z"
         id="path3013"
         style="fill:#c5e0b4;fill-opacity:1;fill-rule:evenodd;stroke:none" />
      <path
         d="m 378.30049,230.71998 c 0,-4.53863 3.69467,-8.2333 8.23331,-8.2333 l 97.78686,0 c 4.55738,0 8.2333,3.69467 8.2333,8.2333 l 0,32.9332 c 0,4.53863 -3.67592,8.21455 -8.2333,8.21455 l -97.78686,0 c -4.53864,0 -8.23331,-3.67592 -8.23331,-8.21455 z"
         id="path3015"
         style="fill:none;stroke:#000000;stroke-width:1.25656307px;stroke-linecap:butt;stroke-linejoin:miter;stroke-miterlimit:4;stroke-opacity:1;stroke-dasharray:none" />
      <text
         x="386.3421"
         y="256.08945"
         id="text3017"
         xml:space="preserve"
         style="font-size:22.5056076px;font-style:normal;font-weight:normal;text-align:start;text-anchor:start;fill:#000000;font-family:Verdana">CoGroup</text>
      <path
         d="m 466.61625,138.95337 c 0,-4.53863 3.67591,-8.21455 8.19579,-8.21455 l 97.99316,0 c 4.53863,0 8.21455,3.67592 8.21455,8.21455 l 0,32.82067 c 0,4.53863 -3.67592,8.19579 -8.21455,8.19579 l -97.99316,0 c -4.51988,0 -8.19579,-3.65716 -8.19579,-8.19579 z"
         id="path3019"
         style="fill:#c5e0b4;fill-opacity:1;fill-rule:evenodd;stroke:none" />
      <path
         d="m 466.61625,138.95337 c 0,-4.53863 3.67591,-8.21455 8.19579,-8.21455 l 97.99316,0 c 4.53863,0 8.21455,3.67592 8.21455,8.21455 l 0,32.82067 c 0,4.53863 -3.67592,8.19579 -8.21455,8.19579 l -97.99316,0 c -4.51988,0 -8.19579,-3.65716 -8.19579,-8.19579 z"
         id="path3021"
         style="fill:none;stroke:#000000;stroke-width:1.25656307px;stroke-linecap:butt;stroke-linejoin:miter;stroke-miterlimit:4;stroke-opacity:1;stroke-dasharray:none" />
      <text
         x="501.57733"
         y="164.32021"
         id="text3023"
         xml:space="preserve"
         style="font-size:22.5056076px;font-style:normal;font-weight:normal;text-align:start;text-anchor:start;fill:#000000;font-family:Verdana">Join</text>
      <path
         d="m 554.91324,52.700629 c 0,-4.538631 3.67592,-8.214546 8.21455,-8.214546 l 98.01192,0 c 4.50112,0 8.17703,3.675915 8.17703,8.214546 l 0,32.820677 c 0,4.53863 -3.67591,8.177037 -8.17703,8.177037 l -98.01192,0 c -4.53863,0 -8.21455,-3.638407 -8.21455,-8.177037 z"
         id="path3025"
         style="fill:#c5e0b4;fill-opacity:1;fill-rule:evenodd;stroke:none" />
      <path
         d="m 554.91324,52.700629 c 0,-4.538631 3.67592,-8.214546 8.21455,-8.214546 l 98.01192,0 c 4.50112,0 8.17703,3.675915 8.17703,8.214546 l 0,32.820677 c 0,4.53863 -3.67591,8.177037 -8.17703,8.177037 l -98.01192,0 c -4.53863,0 -8.21455,-3.638407 -8.21455,-8.177037 z"
         id="path3027"
         style="fill:none;stroke:#000000;stroke-width:1.23780835px;stroke-linecap:butt;stroke-linejoin:miter;stroke-miterlimit:4;stroke-opacity:1;stroke-dasharray:none" />
      <text
         x="563.01886"
         y="78.0373"
         id="text3029"
         xml:space="preserve"
         style="font-size:22.5056076px;font-style:normal;font-weight:normal;text-align:start;text-anchor:start;fill:#000000;font-family:Verdana">CoGroup</text>
      <path
         d="m 611.21477,44.486083 0,-22.505607 0.93773,0.937734 -589.346819,0 0.937734,-0.937734 0,450.674774 -0.937734,-0.93773 236.721469,0 -0.93773,0.93773 0,-16.24155 1.87547,0 0,17.17928 -238.596942,0 0,-452.550238 591.222292,0 0,23.443341 -1.87547,0 z m -355.43855,413.165427 3.75093,-7.50187 3.75094,7.50187 -7.50187,0 z"
         id="path3031"
         style="fill:#000000;fill-opacity:1;fill-rule:nonzero;stroke:#000000;stroke-width:0.03750934px;stroke-linecap:butt;stroke-linejoin:round;stroke-opacity:1;stroke-dasharray:none" />
      <path
         d="m 613.01522,217.66673 -83.75837,-34.43358 0.71268,-1.72543 83.75837,34.43358 -0.71268,1.72543 z m -83.68335,-31.35782 -5.51387,-6.33908 8.36458,-0.60014 -2.85071,6.93922 z"
         id="path3033"
         style="fill:#000000;fill-opacity:1;fill-rule:nonzero;stroke:#000000;stroke-width:0.03750934px;stroke-linecap:butt;stroke-linejoin:round;stroke-opacity:1;stroke-dasharray:none" />
      <path
         d="m 524.19309,131.58278 82.52056,-34.583615 -0.71268,-1.72543 -82.55807,34.583615 0.75019,1.72543 z m 82.44554,-31.50785 5.47636,-6.376587 -8.36458,-0.525131 2.88822,6.901718 z"
         id="path3035"
         style="fill:#000000;fill-opacity:1;fill-rule:nonzero;stroke:#000000;stroke-width:0.03750934px;stroke-linecap:butt;stroke-linejoin:round;stroke-opacity:1;stroke-dasharray:none" />
      <path
         d="m 435.91485,223.31188 82.74561,-39.77866 -0.80645,-1.68792 -82.74561,39.77866 0.80645,1.68792 z m 82.83938,-36.70289 5.13878,-6.63916 -8.38333,-0.11252 3.24455,6.75168 z"
         id="path3037"
         style="fill:#000000;fill-opacity:1;fill-rule:nonzero;stroke:#000000;stroke-width:0.01875467px;stroke-linecap:butt;stroke-linejoin:round;stroke-opacity:1;stroke-dasharray:none" />
      <path
         d="m 355.75738,312.97797 74.56857,-37.45308 -0.84396,-1.68792 -74.56857,37.47183 0.84396,1.66917 z m 74.71861,-34.37731 5.0075,-6.73293 -8.38334,0.0188 3.37584,6.71418 z"
         id="path3039"
         style="fill:#000000;fill-opacity:1;fill-rule:nonzero;stroke:#000000;stroke-width:0.01875467px;stroke-linecap:butt;stroke-linejoin:round;stroke-opacity:1;stroke-dasharray:none" />
      <path
         d="m 462.94033,410.8211 -102.28798,-45.96771 0.76894,-1.72543 102.28798,45.96771 -0.76894,1.72543 z m -102.30674,-42.89194 -5.30757,-6.50787 8.38334,-0.33758 -3.07577,6.84545 z"
         id="path3041"
         style="fill:#000000;fill-opacity:1;fill-rule:nonzero;stroke:#000000;stroke-width:0.01875467px;stroke-linecap:butt;stroke-linejoin:round;stroke-opacity:1;stroke-dasharray:none" />
      <path
         d="m 259.88349,401.8001 89.98492,-37.1155 -0.71268,-1.74418 -89.98491,37.13425 0.71267,1.72543 z m 89.9099,-34.03973 5.49512,-6.33908 -8.36458,-0.60015 2.86946,6.93923 z"
         id="path3043"
         style="fill:#000000;fill-opacity:1;fill-rule:nonzero;stroke:#000000;stroke-width:0.01875467px;stroke-linecap:butt;stroke-linejoin:round;stroke-opacity:1;stroke-dasharray:none" />
      <text
         x="203.77287"
         y="60.953472"
         id="text3045"
         xml:space="preserve"
         style="font-size:22.5056076px;font-style:normal;font-weight:normal;text-align:start;text-anchor:start;fill:#000000;font-family:Verdana">Compute</text>
      <text
         x="189.0692"
         y="87.960197"
         id="text3047"
         xml:space="preserve"
         style="font-size:22.5056076px;font-style:normal;font-weight:normal;text-align:start;text-anchor:start;fill:#000000;font-family:Verdana">User Blocks</text>
      <text
         x="153.04457"
         y="236.21831"
         id="text3049"
         xml:space="preserve"
         style="font-size:22.5056076px;font-style:normal;font-weight:normal;text-align:start;text-anchor:start;fill:#000000;font-family:Verdana">Compute</text>
      <text
         x="136.99057"
         y="263.22504"
         id="text3051"
         xml:space="preserve"
         style="font-size:22.5056076px;font-style:normal;font-weight:normal;text-align:start;text-anchor:start;fill:#000000;font-family:Verdana">Item Blocks</text>
      <text
         x="47.143143"
         y="328.75406"
         id="text3053"
         xml:space="preserve"
         style="font-size:22.5056076px;font-style:normal;font-weight:normal;text-align:start;text-anchor:start;fill:#000000;font-family:Verdana">Send User vectors</text>
      <text
         x="51.7943"
         y="355.76077"
         id="text3055"
         xml:space="preserve"
         style="font-size:22.5056076px;font-style:normal;font-weight:normal;text-align:start;text-anchor:start;fill:#000000;font-family:Verdana">to items (shuffle)</text>
      <text
         x="72.660522"
         y="149.74272"
         id="text3057"
         xml:space="preserve"
         style="font-size:22.5056076px;font-style:normal;font-weight:normal;text-align:start;text-anchor:start;fill:#000000;font-family:Verdana">Send Item vectors</text>
      <text
         x="79.562248"
         y="176.74945"
         id="text3059"
         xml:space="preserve"
         style="font-size:22.5056076px;font-style:normal;font-weight:normal;text-align:start;text-anchor:start;fill:#000000;font-family:Verdana">to users (shuffle)</text>
      <path
         d="m 330.02597,64.628601 2.51312,0.03751 -0.0375,2.513126 -2.51312,-0.03751 z m 5.0075,0.07502 2.49437,0.03751 -0.0375,2.513126 -2.49437,-0.03751 z m 5.00749,0.07502 2.49437,0.03751 -0.0375,2.494372 -2.49437,-0.01875 z m 4.98875,0.07502 2.51312,0.03751 -0.0375,2.494371 -2.51312,-0.03751 z m 5.00749,0.07502 2.49437,0.03751 -0.0375,2.494371 -2.49438,-0.03751 z m 5.0075,0.07502 2.49437,0.03751 -0.0375,2.494372 -2.49437,-0.03751 z m 4.98874,0.07502 2.51313,0.03751 -0.0375,2.494371 -2.51313,-0.03751 z m 5.0075,0.07502 2.49437,0.03751 -0.0375,2.494371 -2.49437,-0.03751 z m 5.0075,0.07502 2.49437,0.01875 -0.0375,2.513126 -2.49437,-0.03751 z m 4.98874,0.05626 2.49437,0.03751 -0.0187,2.513127 -2.51313,-0.03751 z m 5.0075,0.07502 2.49437,0.03751 -0.0375,2.513126 -2.49437,-0.03751 z m 4.98874,0.07502 2.51313,0.03751 -0.0375,2.494371 -2.49437,-0.03751 z m 5.0075,0.07502 2.49437,0.03751 -0.0375,2.494371 -2.49437,-0.03751 z m 5.0075,0.07502 2.49437,0.03751 -0.0375,2.494372 -2.49437,-0.03751 z m 4.98874,0.07502 2.51313,0.03751 -0.0375,2.494371 -2.51313,-0.03751 z m 5.0075,0.07502 2.49437,0.03751 -0.0375,2.494371 -2.49437,-0.03751 z m 5.00749,0.07502 2.49438,0.01875 -0.0375,2.513126 -2.49438,-0.03751 z m 4.98875,0.05626 2.51312,0.03751 -0.0375,2.513126 -2.51312,-0.03751 z m 5.00749,0.07502 2.49438,0.03751 -0.0375,2.513126 -2.49437,-0.03751 z m 5.0075,0.07502 2.49437,0.03751 -0.0375,2.494371 -2.49437,-0.03751 z m 4.98874,0.07502 2.51313,0.03751 -0.0375,2.494372 -2.51312,-0.03751 z m 5.0075,0.07502 2.49437,0.03751 -0.0375,2.494371 -2.49437,-0.03751 z m 4.98875,0.07502 2.51312,0.03751 -0.0375,2.494371 -2.49437,-0.03751 z m 5.00749,0.07502 2.49437,0.03751 -0.0375,2.494372 -2.49437,-0.03751 z m 5.0075,0.07502 2.49437,0.03751 -0.0375,2.494372 -2.49437,-0.03751 z m 4.98874,0.05626 2.51313,0.03751 -0.0375,2.513126 -2.51313,-0.03751 z m 5.0075,0.07502 2.49437,0.03751 -0.0375,2.513126 -2.49437,-0.03751 z m 5.0075,0.07502 2.49437,0.03751 -0.0375,2.494371 -2.49437,-0.01875 z m 4.98874,0.07502 2.51313,0.03751 -0.0375,2.494372 -2.51313,-0.03751 z m 5.0075,0.07502 2.49437,0.03751 -0.0375,2.494371 -2.49437,-0.03751 z m 5.0075,0.07502 2.49437,0.03751 -0.0375,2.494371 -2.49437,-0.03751 z m 4.98874,0.07502 2.51312,0.03751 -0.0375,2.494372 -2.51313,-0.03751 z m 5.0075,0.07502 2.49437,0.03751 -0.0375,2.494371 -2.49437,-0.03751 z m 4.98874,0.05626 2.51313,0.03751 -0.0375,2.513126 -2.49438,-0.03751 z m 5.0075,0.07502 2.49437,0.03751 -0.0188,2.513126 -2.51312,-0.03751 z m 5.00749,0.07502 2.49438,0.03751 -0.0375,2.494372 -2.49438,-0.01875 z m 4.98875,0.07502 2.51312,0.03751 -0.0375,2.494371 -2.51312,-0.03751 z m 5.00749,0.07502 2.49438,0.03751 -0.0375,2.494371 -2.49438,-0.03751 z m 5.0075,0.07502 2.49437,0.03751 -0.0375,2.494372 -2.49437,-0.03751 z m 4.98874,0.07502 2.51313,0.03751 -0.0375,2.494372 -2.51312,-0.03751 z m 5.0075,0.07502 2.49437,0.03751 -0.0375,2.494371 -2.49437,-0.03751 z m 5.0075,0.05626 2.49437,0.03751 -0.0375,2.513126 -2.49437,-0.03751 z m 4.98874,0.07502 2.51313,0.03751 -0.0375,2.513126 -2.51313,-0.03751 z m 5.0075,0.07502 2.49437,0.03751 -0.0375,2.513126 -2.49437,-0.03751 z m 5.0075,0.07502 2.49437,0.03751 -0.0375,2.494371 -2.49437,-0.03751 z m 4.98874,-2.419353 c 2.06301,0.01875 3.71343,1.72543 3.69467,3.807198 -0.0375,2.063014 -1.74418,3.713425 -3.8072,3.694671 -2.08177,-0.03751 -3.73218,-1.744185 -3.69467,-3.807199 0.0188,-2.081768 1.72543,-3.73218 3.8072,-3.69467 z"
         id="path3061"
         style="fill:#000000;fill-opacity:1;fill-rule:nonzero;stroke:#000000;stroke-width:0.01875467px;stroke-linecap:butt;stroke-linejoin:round;stroke-opacity:1;stroke-dasharray:none" />
      <path
         d="m 298.2368,138.80333 2.49437,-0.2063 -0.2063,-2.49437 -2.49437,0.2063 z m 4.98874,-0.4126 2.49437,-0.2063 -0.2063,-2.49438 -2.49437,0.20631 z m 4.96999,-0.41261 2.49437,-0.2063 -0.2063,-2.49437 -2.49437,0.2063 z m 4.98874,-0.4126 2.49437,-0.22506 -0.2063,-2.47561 -2.49437,0.2063 z m 4.98874,-0.43136 2.49438,-0.2063 -0.20631,-2.47561 -2.49437,0.2063 z m 4.98875,-0.4126 2.49437,-0.2063 -0.2063,-2.49437 -2.49437,0.2063 z m 4.96999,-0.4126 2.49437,-0.2063 -0.2063,-2.49437 -2.49438,0.2063 z m 4.98874,-0.4126 2.49437,-0.20631 -0.2063,-2.49437 -2.49437,0.2063 z m 4.98874,-0.41261 2.49437,-0.2063 -0.2063,-2.49437 -2.49437,0.2063 z m 4.98874,-0.4126 2.49438,-0.2063 -0.20631,-2.49437 -2.49437,0.2063 z m 4.96999,-0.4126 2.49437,-0.2063 -0.2063,-2.49438 -2.49437,0.20631 z m 4.98875,-0.41261 2.49437,-0.2063 -0.2063,-2.49437 -2.49438,0.2063 z m 4.98874,-0.4126 2.49437,-0.2063 -0.2063,-2.49437 -2.49437,0.2063 z m 4.98874,-0.4126 2.49437,-0.2063 -0.2063,-2.49437 -2.49437,0.2063 z m 4.96999,-0.4126 2.49437,-0.20631 -0.2063,-2.49437 -2.49437,0.2063 z m 4.98874,-0.41261 2.49437,-0.2063 -0.2063,-2.49437 -2.49437,0.2063 z m 4.98874,-0.43135 2.49438,-0.20631 -0.20631,-2.47561 -2.49437,0.2063 z m 4.98875,-0.41261 2.49437,-0.2063 -0.2063,-2.49437 -2.49437,0.22506 z m 4.96999,-0.4126 2.49437,-0.2063 -0.2063,-2.49437 -2.49438,0.2063 z m 4.98874,-0.4126 2.49437,-0.2063 -0.2063,-2.49438 -2.49437,0.20631 z m 4.98874,-0.41261 2.49437,-0.2063 -0.2063,-2.49437 -2.49437,0.2063 z m 4.98874,-0.4126 2.49438,-0.2063 -0.20631,-2.49437 -2.49437,0.2063 z m 4.96999,-0.4126 2.49437,-0.2063 -0.2063,-2.49437 -2.49437,0.2063 z m 4.98875,-0.4126 2.49437,-0.20631 -0.2063,-2.49437 -2.49438,0.2063 z m 4.98874,-0.41261 2.49437,-0.2063 -0.2063,-2.49437 -2.49437,0.2063 z m 4.98874,-0.4126 2.49437,-0.2063 -0.2063,-2.49437 -2.49437,0.2063 z m 4.96999,-0.4126 2.49437,-0.2063 -0.2063,-2.49438 -2.49437,0.20631 z m 4.98874,-0.41261 2.49437,-0.2063 -0.2063,-2.49437 -2.49437,0.2063 z m 4.98874,-0.43135 2.49438,-0.2063 -0.20631,-2.47562 -2.49437,0.2063 z m 4.98875,-0.41261 2.49437,-0.2063 -0.2063,-2.49437 -2.49437,0.22506 z m 4.98874,-0.4126 2.47562,-0.2063 -0.2063,-2.49437 -2.49438,0.2063 z m 4.96999,-0.4126 2.49437,-0.2063 -0.2063,-2.49437 -2.49437,0.2063 z m 4.98874,-0.4126 2.49437,-0.20631 -0.2063,-2.49437 -2.49437,0.2063 z m 4.98874,-0.41261 2.49438,-0.2063 -0.20631,-2.49437 -2.49437,0.2063 z m 4.98875,-0.4126 2.47561,-0.2063 -0.2063,-2.49437 -2.49437,0.2063 z m 4.96998,-0.4126 2.49438,-0.2063 -0.20631,-2.49438 -2.49437,0.20631 z m 4.98875,-0.41261 2.49437,-0.2063 -0.2063,-2.49437 -2.49437,0.2063 z m 4.98874,-0.4126 2.49437,-0.2063 -0.2063,-2.49437 -2.49437,0.2063 z m 4.98874,-0.4126 2.47562,-0.2063 -0.2063,-2.49437 -2.49437,0.2063 z m 4.96999,-0.4126 2.49437,-0.2063 -0.2063,-2.49438 -2.49437,0.20631 z m 4.98874,-0.41261 2.49438,-0.22505 -0.20631,-2.47562 -2.49437,0.2063 z m 4.98875,-0.43135 2.49437,-0.20631 -0.2063,-2.47561 -2.49437,0.2063 z m 4.98874,-0.41261 2.47562,-0.2063 -0.2063,-2.49437 -2.49438,0.2063 z m 4.96999,-0.4126 2.49437,-0.2063 -0.2063,-2.49437 -2.49437,0.2063 z m 4.98874,-0.4126 2.49437,-0.2063 -0.2063,-2.49437 -2.49437,0.2063 z m 4.98874,-0.4126 2.49438,-0.20631 -0.20631,-2.49437 -2.49437,0.2063 z m 4.98875,-0.41261 2.47561,-0.2063 -0.2063,-2.49437 -2.49437,0.2063 z m 4.96998,-0.4126 2.49438,-0.2063 -0.20631,-2.49437 -2.49437,0.2063 z m 4.98875,-0.4126 2.49437,-0.2063 -0.2063,-2.49438 -2.49437,0.20631 z m 4.98874,-0.41261 2.49437,-0.2063 -0.2063,-2.49437 -2.49437,0.2063 z m 4.98874,-0.4126 2.47562,-0.2063 -0.2063,-2.49437 -2.49437,0.2063 z m 4.96999,-0.4126 2.49437,-0.2063 -0.2063,-2.49437 -2.49437,0.2063 z m 2.85071,2.26931 c 2.06302,-0.16879 3.6009,-1.98799 3.43211,-4.05101 -0.1688,-2.06301 -1.988,-3.60089 -4.05101,-3.4321 -2.06302,0.16879 -3.6009,1.98799 -3.41335,4.05101 0.16879,2.06301 1.96924,3.6009 4.03225,3.4321 z"
         id="path3063"
         style="fill:#000000;fill-opacity:1;fill-rule:nonzero;stroke:#000000;stroke-width:0.01875467px;stroke-linecap:butt;stroke-linejoin:round;stroke-opacity:1;stroke-dasharray:none" />
      <path
         d="m 259.60217,238.89702 2.49437,0.15003 -0.15003,2.49437 -2.49437,-0.15003 z m 4.98875,0.30007 2.49437,0.15004 -0.15004,2.49437 -2.49437,-0.15004 z m 4.98874,0.30007 2.51313,0.15004 -0.15004,2.49437 -2.49437,-0.15003 z m 5.0075,0.30008 2.49437,0.15004 -0.15004,2.49437 -2.49437,-0.15004 z m 4.98874,0.30007 2.49437,0.13129 -0.15004,2.51312 -2.49437,-0.15003 z m 4.98874,0.28132 2.49437,0.15004 -0.15003,2.49437 -2.49438,-0.15003 z m 4.98875,0.30008 2.49437,0.15004 -0.15004,2.49437 -2.49437,-0.15004 z m 4.98874,0.30007 2.51312,0.15004 -0.15003,2.49437 -2.49437,-0.15003 z m 5.0075,0.30008 2.49437,0.15004 -0.15004,2.49437 -2.49437,-0.15004 z m 4.98874,0.30007 2.49437,0.13129 -0.15004,2.51312 -2.49437,-0.15004 z m 4.98874,0.28132 2.49437,0.15004 -0.15004,2.49437 -2.49437,-0.15004 z m 4.98874,0.30008 2.49438,0.15004 -0.15004,2.49437 -2.49437,-0.15004 z m 4.98875,0.30007 2.51312,0.15004 -0.15003,2.49437 -2.49438,-0.15004 z m 5.00749,0.30008 2.49438,0.15004 -0.15004,2.49437 -2.49437,-0.15004 z m 4.98875,0.30007 2.49437,0.15004 -0.15004,2.49437 -2.49437,-0.15004 z m 4.98874,0.28132 2.49437,0.15004 -0.15004,2.49437 -2.49437,-0.13128 z m 4.98874,0.30008 2.49437,0.15003 -0.15003,2.49438 -2.49437,-0.15004 z m 4.98875,0.30007 2.51312,0.15004 -0.15004,2.49437 -2.49437,-0.15004 z m 5.00749,0.30008 2.49437,0.15003 -0.15003,2.49438 -2.49437,-0.15004 z m 4.98875,0.30007 2.49437,0.15004 -0.15004,2.49437 -2.49437,-0.15004 z m 4.98874,0.30008 2.49437,0.13128 -0.15004,2.51313 -2.49437,-0.15004 z m 4.98874,0.28132 2.49437,0.15003 -0.15003,2.49438 -2.49438,-0.15004 z m 4.98874,0.30007 2.51313,0.15004 -0.15004,2.49437 -2.49437,-0.15004 z m 5.0075,0.30008 2.49437,0.15003 -0.15003,2.49437 -2.49438,-0.15003 z m 4.06977,-2.26932 c 2.06301,0.13128 3.6384,1.91298 3.52587,3.97599 -0.13128,2.06302 -1.91297,3.63841 -3.97599,3.52588 -2.06301,-0.13128 -3.6384,-1.91298 -3.52587,-3.97599 0.13128,-2.06301 1.91297,-3.63841 3.97599,-3.52588 z"
         id="path3065"
         style="fill:#000000;fill-opacity:1;fill-rule:nonzero;stroke:#000000;stroke-width:0.01875467px;stroke-linecap:butt;stroke-linejoin:round;stroke-opacity:1;stroke-dasharray:none" />
      <path
         d="m 258.62693,317.81668 2.47562,-0.39385 -0.39385,-2.45686 -2.47562,0.39384 z m 4.95123,-0.7877 2.45687,-0.39385 -0.39385,-2.47561 -2.45686,0.4126 z m 4.93248,-0.7877 2.47562,-0.39384 -0.39385,-2.47562 -2.47562,0.39385 z m 4.93248,-0.78769 2.47562,-0.39385 -0.39385,-2.47562 -2.47562,0.39385 z m 4.95124,-0.7877 2.45686,-0.39385 -0.39385,-2.47561 -2.47562,0.39384 z m 4.93247,-0.80645 2.47562,-0.39385 -0.4126,-2.45686 -2.45686,0.39385 z m 4.93248,-0.7877 2.47562,-0.39384 -0.39385,-2.47562 -2.47562,0.4126 z m 4.93248,-0.78769 2.47562,-0.39385 -0.39385,-2.47562 -2.47562,0.39385 z m 4.95123,-0.7877 2.45687,-0.39385 -0.39385,-2.47561 -2.45686,0.39384 z m 4.93248,-0.78769 2.47562,-0.39385 -0.39385,-2.47562 -2.47561,0.39385 z m 4.93248,-0.80646 2.47562,-0.39384 -0.39385,-2.45687 -2.47562,0.39385 z m 4.95124,-0.78769 2.45686,-0.39385 -0.39385,-2.45686 -2.45686,0.39385 z m 4.93247,-0.7877 2.47562,-0.39385 -0.39385,-2.47561 -2.47561,0.39385 z m 4.93248,-0.78769 2.47562,-0.39385 -0.39385,-2.47562 -2.47561,0.39385 z m 4.95124,-0.7877 2.45686,-0.39385 -0.39385,-2.47562 -2.45686,0.39385 z m 4.93248,-0.7877 2.47561,-0.4126 -0.39385,-2.45686 -2.47561,0.39385 z m 4.93247,-0.80645 2.47562,-0.39385 -0.39385,-2.45686 -2.47561,0.39385 z m 4.95124,-0.78769 2.45686,-0.39385 -0.39385,-2.47562 -2.47561,0.39385 z m 4.93248,-0.7877 2.47561,-0.39385 -0.4126,-2.47561 -2.45686,0.39384 z m 4.93248,-0.7877 2.47561,-0.39384 -0.39385,-2.47562 -2.47561,0.39385 z m 4.93247,-0.78769 2.47562,-0.41261 -0.39385,-2.45686 -2.47561,0.39385 z m 4.95124,-0.80645 2.45686,-0.39385 -0.39385,-2.45686 -2.45686,0.39384 z m 4.93248,-0.7877 2.47561,-0.39385 -0.39384,-2.47561 -2.47562,0.4126 z m 4.93248,-0.7877 2.47561,-0.39384 -0.39385,-2.47562 -2.47561,0.39385 z m 4.95123,-0.78769 2.45686,-0.39385 -0.39385,-2.47562 -2.45686,0.39385 z m 4.93248,-0.7877 0.50637,-0.0938 -0.39384,-2.45686 -0.50638,0.075 z m 0.90022,2.38184 c 2.04426,-0.33758 3.43211,-2.25056 3.11328,-4.29482 -0.33759,-2.04425 -2.25056,-3.4321 -4.29482,-3.11327 -2.04426,0.31883 -3.45086,2.25056 -3.11328,4.29482 0.31883,2.04426 2.25056,3.4321 4.29482,3.11327 z"
         id="path3067"
         style="fill:#000000;fill-opacity:1;fill-rule:nonzero;stroke:#000000;stroke-width:0.01875467px;stroke-linecap:butt;stroke-linejoin:round;stroke-opacity:1;stroke-dasharray:none" />
      <path
         d="m 444.72954,312.04024 0,63.61585 140.04114,0 0,-63.61585 -140.04114,0 z"
         id="path3069"
         style="fill:#d6dce5;fill-opacity:1;fill-rule:evenodd;stroke:none" />
      <path
         d="m 444.72954,312.04024 140.04114,0 0,63.61585 -140.04114,0 z"
         id="path3071"
         style="fill:none;stroke:#000000;stroke-width:0.93773359px;stroke-linecap:butt;stroke-linejoin:round;stroke-opacity:1;stroke-dasharray:none" />
      <text
         x="454.43347"
         y="338.99814"
         id="text3073"
         xml:space="preserve"
         style="font-size:22.5056076px;font-style:normal;font-weight:normal;text-align:start;text-anchor:start;fill:#000000;font-family:Verdana">Item block</text>
      <text
         x="465.3862"
         y="366.00488"
         id="text3075"
         xml:space="preserve"
         style="font-size:22.5056076px;font-style:normal;font-weight:normal;text-align:start;text-anchor:start;fill:#000000;font-family:Verdana">info (in) </text>
      <path
         d="m 514.36564,312.97797 -73.70586,-37.43433 0.84396,-1.66916 73.70586,37.43432 -0.84396,1.66917 z m -73.8559,-34.35856 -5.0075,-6.75168 8.4021,0.0563 -3.3946,6.69542 z"
         id="path3077"
         style="fill:#000000;fill-opacity:1;fill-rule:nonzero;stroke:#000000;stroke-width:0.01875467px;stroke-linecap:butt;stroke-linejoin:round;stroke-opacity:1;stroke-dasharray:none" />
      <path
         d="m 697.97388,131.50776 -80.45754,-34.471086 0.71268,-1.72543 80.49505,34.471086 -0.75019,1.72543 z m -80.42003,-31.39532 -5.43886,-6.414097 8.4021,-0.487622 -2.96324,6.901719 z"
         id="path3079"
         style="fill:#000000;fill-opacity:1;fill-rule:nonzero;stroke:#000000;stroke-width:0.03750934px;stroke-linecap:butt;stroke-linejoin:round;stroke-opacity:1;stroke-dasharray:none" />
      <path
         d="m 543.36036,216.87903 0,63.61585 140.02239,0 0,-63.61585 -140.02239,0 z"
         id="path3081"
         style="fill:#d6dce5;fill-opacity:1;fill-rule:evenodd;stroke:none" />
      <path
         d="m 543.36036,216.87903 140.02239,0 0,63.61585 -140.02239,0 z"
         id="path3083"
         style="fill:none;stroke:#000000;stroke-width:0.93773359px;stroke-linecap:butt;stroke-linejoin:round;stroke-opacity:1;stroke-dasharray:none" />
      <text
         x="553.09216"
         y="243.79478"
         id="text3085"
         xml:space="preserve"
         style="font-size:22.5056076px;font-style:normal;font-weight:normal;text-align:start;text-anchor:start;fill:#000000;font-family:Verdana">Item block</text>
      <text
         x="554.29248"
         y="270.80151"
         id="text3087"
         xml:space="preserve"
         style="font-size:22.5056076px;font-style:normal;font-weight:normal;text-align:start;text-anchor:start;fill:#000000;font-family:Verdana">Info (out) </text>
      <path
         d="m 629.63186,130.75757 0,63.61585 137.35922,0 0,-63.61585 -137.35922,0 z"
         id="path3089"
         style="fill:#d6dce5;fill-opacity:1;fill-rule:evenodd;stroke:none" />
      <path
         d="m 629.63186,130.75757 137.35922,0 0,63.61585 -137.35922,0 z"
         id="path3091"
         style="fill:none;stroke:#000000;stroke-width:0.93773359px;stroke-linecap:butt;stroke-linejoin:round;stroke-opacity:1;stroke-dasharray:none" />
      <text
         x="639.3902"
         y="157.60187"
         id="text3093"
         xml:space="preserve"
         style="font-size:22.5056076px;font-style:normal;font-weight:normal;text-align:start;text-anchor:start;fill:#000000;font-family:Verdana">User block</text>
      <text
         x="648.99261"
         y="184.6086"
         id="text3095"
         xml:space="preserve"
         style="font-size:22.5056076px;font-style:normal;font-weight:normal;text-align:start;text-anchor:start;fill:#000000;font-family:Verdana">info (in) </text>
    </g>
  </g>
</svg>
