<?xml version="1.0" encoding="utf-8"?>
<!-- Generator: Adobe Illustrator 20.0.0, SVG Export Plug-In . SVG Version: 6.00 Build 0)  -->
<svg version="1.1" id="Ebene_1" xmlns="http://www.w3.org/2000/svg" xmlns:xlink="http://www.w3.org/1999/xlink" x="0px" y="0px"
	 width="200px" height="57.4px" viewBox="0 0 200 57.4" style="enable-background:new 0 0 200 57.4;" xml:space="preserve">
<style type="text/css">
	.st0{fill:#164193;}
	.st1{fill:#FFEC00;}
	.st2{fill:#FFFFFF;}
</style>
<g>
	<g>
		<rect class="st0" width="86.1" height="57.4"/>
		<path class="st0" d="M43.1,28.7"/>
	</g>
	<g>
		<polygon class="st1" points="41.2,12.5 43.1,11.2 44.9,12.5 44.2,10.4 46,9 43.8,9 43.1,6.9 42.4,9 40.1,9 41.9,10.4 		"/>
		<polygon class="st1" points="31.8,15.6 33.6,14.3 35.5,15.6 34.8,13.5 36.6,11.6 34.3,12.1 33.6,10 32.9,12.1 30.7,12.1 
			32.5,13.5 		"/>
		<polygon class="st1" points="26.8,16.9 26.1,19 23.8,19 25.6,20.4 24.9,22.5 26.8,21.2 28.6,22.5 27.9,20.4 29.7,19 27.5,19 		"/>
		<polygon class="st1" points="24.2,30.6 26.1,31.9 25.4,29.7 27.2,28.4 24.9,28.4 24.2,26.2 23.5,28.4 21.3,28.4 23.1,29.7 
			22.4,31.9 		"/>
		<polygon class="st1" points="27.5,37.8 26.8,35.7 26.1,37.8 23.8,37.8 25.6,39.2 24.9,41.3 26.8,40 28.6,41.3 27.9,39.2 
			29.7,37.8 		"/>
		<polygon class="st1" points="34.4,44.7 33.7,42.6 33,44.7 30.7,44.7 32.5,46.1 31.8,48.2 33.7,46.9 35.5,48.2 34.8,46.1 
			36.6,44.2 		"/>
		<polygon class="st1" points="43.8,46.7 43.1,44.5 42.4,46.7 40.1,46.7 41.9,48 41.2,50.2 43.1,48.8 44.9,50.2 44.2,48 46,46.7 		
			"/>
		<polygon class="st1" points="53.1,44.2 52.5,42 51.8,44.2 49.5,44.2 51.3,45.5 50.6,47.7 52.5,46.3 54.3,47.7 53.6,45.5 
			55.4,44.2 		"/>
		<polygon class="st1" points="60,37.3 59.3,35.1 58.6,37.3 56.4,37.3 58.2,38.6 57.5,40.8 59.3,39.4 61.2,40.8 60.5,38.6 
			62.3,37.3 		"/>
		<polygon class="st1" points="65.4,27.8 62.5,27.8 61.8,25.7 61.1,27.8 58.9,27.8 60.7,29.2 60,31.3 61.8,30 63.7,31.3 63,29.2 		
			"/>
		<polygon class="st1" points="57.5,21.9 59.3,20.6 61.2,21.9 60.5,19.8 62.3,18.4 60,18.4 59.3,16.3 58.6,18.4 56.4,18.4 
			58.2,19.8 		"/>
		<polygon class="st1" points="52.5,9.4 51.8,11.6 49.5,11.6 51.3,12.9 50.7,15 52.5,13.7 54.3,15 53.6,12.9 55.5,11.6 53.2,11.6 		
			"/>
	</g>
</g>
<g>
	<path class="st2" d="M92.6,12.1V3.5h6.2v1h-5.1v2.6h4.8v1h-4.8v2.9H99v1H92.6z"/>
	<path class="st2" d="M106.2,3.5h1.1v5c0,0.9-0.1,1.5-0.3,2.1c-0.2,0.5-0.5,0.9-1.1,1.2c-0.5,0.3-1.2,0.5-2,0.5
		c-0.8,0-1.5-0.1-2-0.4c-0.5-0.3-0.9-0.7-1.1-1.2c-0.2-0.5-0.3-1.2-0.3-2.2v-5h1.1v5c0,0.7,0.1,1.3,0.2,1.6c0.1,0.4,0.4,0.6,0.7,0.8
		c0.3,0.2,0.8,0.3,1.2,0.3c0.8,0,1.4-0.2,1.8-0.6c0.4-0.4,0.5-1.1,0.5-2.2V3.5z"/>
	<path class="st2" d="M109.3,12.1V3.5h3.8c0.8,0,1.3,0.1,1.7,0.2c0.4,0.2,0.7,0.4,1,0.8c0.2,0.4,0.4,0.8,0.4,1.3
		c0,0.6-0.2,1.1-0.6,1.5c-0.4,0.4-1,0.7-1.8,0.8c0.3,0.1,0.5,0.3,0.7,0.4c0.3,0.3,0.6,0.7,0.9,1.1l1.5,2.3h-1.4l-1.1-1.8
		c-0.3-0.5-0.6-0.9-0.8-1.2c-0.2-0.3-0.4-0.5-0.6-0.6c-0.2-0.1-0.3-0.2-0.5-0.2c-0.1,0-0.3,0-0.6,0h-1.3v3.8H109.3z M110.4,7.3h2.4
		c0.5,0,0.9-0.1,1.2-0.2c0.3-0.1,0.5-0.3,0.7-0.5c0.2-0.2,0.2-0.5,0.2-0.8c0-0.4-0.1-0.7-0.4-1c-0.3-0.3-0.8-0.4-1.4-0.4h-2.7V7.3z"
		/>
	<path class="st2" d="M117.6,7.9c0-1.4,0.4-2.5,1.1-3.3c0.8-0.8,1.8-1.2,3-1.2c0.8,0,1.5,0.2,2.1,0.6c0.6,0.4,1.1,0.9,1.5,1.6
		c0.3,0.7,0.5,1.4,0.5,2.3c0,0.9-0.2,1.7-0.5,2.3c-0.4,0.7-0.8,1.2-1.5,1.6c-0.6,0.4-1.3,0.5-2.1,0.5c-0.8,0-1.5-0.2-2.2-0.6
		c-0.6-0.4-1.1-0.9-1.4-1.6C117.7,9.4,117.6,8.7,117.6,7.9z M118.7,7.9c0,1,0.3,1.9,0.8,2.4c0.6,0.6,1.3,0.9,2.1,0.9
		c0.9,0,1.6-0.3,2.1-0.9c0.6-0.6,0.8-1.5,0.8-2.6c0-0.7-0.1-1.3-0.4-1.8c-0.2-0.5-0.6-0.9-1-1.2c-0.5-0.3-1-0.4-1.5-0.4
		c-0.8,0-1.5,0.3-2.1,0.8C119,5.7,118.7,6.6,118.7,7.9z"/>
	<path class="st2" d="M127.2,12.1V3.5h3.2c0.6,0,1,0,1.3,0.1c0.4,0.1,0.8,0.2,1.1,0.4c0.3,0.2,0.5,0.5,0.7,0.8
		c0.2,0.4,0.3,0.7,0.3,1.2c0,0.7-0.2,1.3-0.7,1.9c-0.5,0.5-1.3,0.8-2.5,0.8h-2.2v3.5H127.2z M128.4,7.6h2.2c0.7,0,1.3-0.1,1.6-0.4
		c0.3-0.3,0.5-0.7,0.5-1.2c0-0.4-0.1-0.7-0.3-0.9c-0.2-0.3-0.4-0.4-0.7-0.5c-0.2-0.1-0.5-0.1-1.1-0.1h-2.2V7.6z"/>
	<path class="st2" d="M135.3,12.1V3.5h6.2v1h-5.1v2.6h4.8v1h-4.8v2.9h5.3v1H135.3z"/>
	<path class="st2" d="M142.3,12.1l3.3-8.6h1.2l3.5,8.6H149l-1-2.6h-3.6l-0.9,2.6H142.3z M144.8,8.6h2.9l-0.9-2.4
		c-0.3-0.7-0.5-1.3-0.6-1.8c-0.1,0.6-0.3,1.1-0.5,1.6L144.8,8.6z"/>
	<path class="st2" d="M151.2,12.1V3.5h1.2l4.5,6.7V3.5h1.1v8.6h-1.2l-4.5-6.7v6.7H151.2z"/>
	<path class="st2" d="M168.9,3.5h1.1v5c0,0.9-0.1,1.5-0.3,2.1c-0.2,0.5-0.5,0.9-1.1,1.2c-0.5,0.3-1.2,0.5-2,0.5
		c-0.8,0-1.5-0.1-2-0.4c-0.5-0.3-0.9-0.7-1.1-1.2c-0.2-0.5-0.3-1.2-0.3-2.2v-5h1.1v5c0,0.7,0.1,1.3,0.2,1.6c0.1,0.4,0.4,0.6,0.7,0.8
		c0.3,0.2,0.8,0.3,1.2,0.3c0.8,0,1.4-0.2,1.8-0.6c0.4-0.4,0.5-1.1,0.5-2.2V3.5z"/>
	<path class="st2" d="M171.9,12.1V3.5h1.2l4.5,6.7V3.5h1.1v8.6h-1.2L173,5.3v6.7H171.9z"/>
	<path class="st2" d="M180.8,12.1V3.5h1.1v8.6H180.8z"/>
	<path class="st2" d="M183.6,7.9c0-1.4,0.4-2.5,1.1-3.3c0.8-0.8,1.8-1.2,3-1.2c0.8,0,1.5,0.2,2.1,0.6c0.6,0.4,1.1,0.9,1.5,1.6
		c0.3,0.7,0.5,1.4,0.5,2.3c0,0.9-0.2,1.7-0.5,2.3c-0.4,0.7-0.8,1.2-1.5,1.6c-0.6,0.4-1.3,0.5-2.1,0.5c-0.8,0-1.5-0.2-2.2-0.6
		c-0.6-0.4-1.1-0.9-1.4-1.6C183.7,9.4,183.6,8.7,183.6,7.9z M184.7,7.9c0,1,0.3,1.9,0.8,2.4c0.6,0.6,1.3,0.9,2.1,0.9
		c0.9,0,1.6-0.3,2.1-0.9c0.6-0.6,0.8-1.5,0.8-2.6c0-0.7-0.1-1.3-0.4-1.8c-0.2-0.5-0.6-0.9-1-1.2c-0.5-0.3-1-0.4-1.5-0.4
		c-0.8,0-1.5,0.3-2.1,0.8C185,5.7,184.7,6.6,184.7,7.9z"/>
	<path class="st2" d="M193.2,12.1V3.5h1.2l4.5,6.7V3.5h1.1v8.6h-1.2l-4.5-6.7v6.7H193.2z"/>
	<path class="st2" d="M92.5,40.9v-7.8h5.6V34h-4.6v2.4h4.3v0.9h-4.3V40h4.8v0.9H92.5z"/>
	<path class="st2" d="M103.3,40.9v-0.8c-0.4,0.6-1,1-1.8,1c-0.3,0-0.6-0.1-0.9-0.2s-0.5-0.3-0.6-0.5c-0.1-0.2-0.2-0.4-0.3-0.7
		c0-0.2-0.1-0.5-0.1-0.9v-3.5h1v3.1c0,0.5,0,0.8,0.1,1c0.1,0.3,0.2,0.5,0.4,0.6c0.2,0.1,0.4,0.2,0.7,0.2c0.3,0,0.6-0.1,0.8-0.2
		c0.3-0.1,0.4-0.3,0.5-0.6s0.2-0.6,0.2-1.1v-3h1v5.7H103.3z"/>
	<path class="st2" d="M105.7,40.9v-5.7h0.9v0.9c0.2-0.4,0.4-0.7,0.6-0.8s0.4-0.2,0.6-0.2c0.3,0,0.7,0.1,1,0.3l-0.3,0.9
		c-0.2-0.1-0.5-0.2-0.7-0.2c-0.2,0-0.4,0.1-0.6,0.2c-0.2,0.1-0.3,0.3-0.4,0.5c-0.1,0.3-0.2,0.7-0.2,1.1v3H105.7z"/>
	<path class="st2" d="M109,38.1c0-1,0.3-1.8,0.9-2.3c0.5-0.4,1.1-0.6,1.8-0.6c0.8,0,1.4,0.3,1.9,0.8c0.5,0.5,0.7,1.2,0.7,2.1
		c0,0.7-0.1,1.3-0.3,1.7c-0.2,0.4-0.5,0.7-1,1s-0.9,0.3-1.4,0.3c-0.8,0-1.4-0.3-1.9-0.8S109,39,109,38.1z M110,38.1
		c0,0.7,0.2,1.3,0.5,1.6c0.3,0.4,0.7,0.5,1.2,0.5c0.5,0,0.9-0.2,1.2-0.5c0.3-0.4,0.5-0.9,0.5-1.7c0-0.7-0.2-1.2-0.5-1.6
		c-0.3-0.4-0.7-0.5-1.2-0.5c-0.5,0-0.9,0.2-1.2,0.5C110.1,36.8,110,37.3,110,38.1z"/>
	<path class="st2" d="M115.4,43v-7.8h0.9V36c0.2-0.3,0.4-0.5,0.7-0.6c0.3-0.1,0.6-0.2,0.9-0.2c0.5,0,0.9,0.1,1.3,0.4
		s0.6,0.6,0.8,1.1c0.2,0.5,0.3,0.9,0.3,1.5c0,0.6-0.1,1.1-0.3,1.6c-0.2,0.5-0.5,0.8-0.9,1.1c-0.4,0.2-0.8,0.4-1.2,0.4
		c-0.3,0-0.6-0.1-0.9-0.2c-0.3-0.1-0.5-0.3-0.6-0.5V43H115.4z M116.3,38.1c0,0.7,0.1,1.3,0.4,1.6s0.7,0.5,1.1,0.5
		c0.4,0,0.8-0.2,1.1-0.5c0.3-0.4,0.5-0.9,0.5-1.7c0-0.7-0.1-1.3-0.4-1.6c-0.3-0.4-0.7-0.5-1.1-0.5c-0.4,0-0.8,0.2-1.1,0.6
		C116.4,36.8,116.3,37.4,116.3,38.1z"/>
	<path class="st2" d="M125.3,39.1l1,0.1c-0.2,0.6-0.4,1-0.9,1.3c-0.4,0.3-1,0.5-1.6,0.5c-0.8,0-1.5-0.3-2-0.8
		c-0.5-0.5-0.7-1.2-0.7-2.1c0-1,0.2-1.7,0.7-2.2c0.5-0.5,1.1-0.8,1.9-0.8c0.8,0,1.4,0.3,1.9,0.8s0.7,1.2,0.7,2.2c0,0.1,0,0.1,0,0.3
		h-4.2c0,0.6,0.2,1.1,0.5,1.4s0.7,0.5,1.2,0.5c0.4,0,0.7-0.1,0.9-0.3C125,39.8,125.2,39.5,125.3,39.1z M122.2,37.5h3.2
		c0-0.5-0.2-0.8-0.4-1.1c-0.3-0.4-0.7-0.6-1.2-0.6c-0.4,0-0.8,0.1-1.1,0.4C122.4,36.6,122.2,37,122.2,37.5z"/>
	<path class="st2" d="M131.2,40.2c-0.4,0.3-0.7,0.5-1,0.6c-0.3,0.1-0.7,0.2-1.1,0.2c-0.6,0-1.1-0.2-1.4-0.5
		c-0.3-0.3-0.5-0.7-0.5-1.2c0-0.3,0.1-0.5,0.2-0.8c0.1-0.2,0.3-0.4,0.5-0.6c0.2-0.1,0.4-0.2,0.7-0.3c0.2,0,0.5-0.1,0.9-0.1
		c0.8-0.1,1.3-0.2,1.7-0.3c0-0.1,0-0.2,0-0.3c0-0.4-0.1-0.7-0.3-0.8c-0.2-0.2-0.6-0.3-1.1-0.3c-0.5,0-0.8,0.1-1,0.2
		c-0.2,0.2-0.4,0.4-0.5,0.8l-0.9-0.1c0.1-0.4,0.2-0.7,0.4-1c0.2-0.2,0.5-0.4,0.8-0.6c0.4-0.1,0.8-0.2,1.3-0.2c0.5,0,0.9,0.1,1.2,0.2
		c0.3,0.1,0.5,0.3,0.7,0.4c0.1,0.2,0.2,0.4,0.3,0.7c0,0.2,0,0.5,0,0.9v1.3c0,0.9,0,1.5,0.1,1.7c0,0.2,0.1,0.5,0.2,0.7h-1
		C131.3,40.7,131.3,40.4,131.2,40.2z M131.1,38c-0.3,0.1-0.9,0.3-1.6,0.4c-0.4,0.1-0.7,0.1-0.8,0.2s-0.3,0.2-0.4,0.3
		c-0.1,0.1-0.1,0.3-0.1,0.5c0,0.3,0.1,0.5,0.3,0.6c0.2,0.2,0.5,0.3,0.8,0.3c0.4,0,0.7-0.1,1-0.2c0.3-0.2,0.5-0.4,0.6-0.7
		c0.1-0.2,0.2-0.5,0.2-1V38z"/>
	<path class="st2" d="M133.6,40.9v-5.7h0.9V36c0.4-0.6,1-0.9,1.8-0.9c0.3,0,0.7,0.1,0.9,0.2c0.3,0.1,0.5,0.3,0.6,0.5
		c0.1,0.2,0.2,0.4,0.3,0.7c0,0.2,0.1,0.5,0.1,0.9v3.5h-1v-3.4c0-0.4,0-0.7-0.1-0.9c-0.1-0.2-0.2-0.3-0.4-0.5
		c-0.2-0.1-0.4-0.2-0.7-0.2c-0.4,0-0.8,0.1-1.1,0.4s-0.4,0.8-0.4,1.5v3.1H133.6z"/>
	<path class="st2" d="M142.8,40.9v-7.8h3.5c0.7,0,1.2,0.1,1.6,0.2c0.4,0.1,0.7,0.4,0.9,0.7c0.2,0.4,0.3,0.7,0.3,1.2
		c0,0.6-0.2,1-0.5,1.4s-0.9,0.6-1.7,0.7c0.3,0.1,0.5,0.3,0.6,0.4c0.3,0.3,0.6,0.6,0.9,1l1.4,2.1h-1.3l-1-1.6
		c-0.3-0.5-0.6-0.8-0.7-1.1c-0.2-0.2-0.4-0.4-0.5-0.5c-0.2-0.1-0.3-0.2-0.5-0.2c-0.1,0-0.3,0-0.6,0h-1.2v3.5H142.8z M143.9,36.5h2.2
		c0.5,0,0.8,0,1.1-0.1c0.3-0.1,0.5-0.3,0.6-0.5c0.1-0.2,0.2-0.4,0.2-0.7c0-0.4-0.1-0.7-0.4-0.9s-0.7-0.4-1.3-0.4h-2.5V36.5z"/>
	<path class="st2" d="M154.4,39.1l1,0.1c-0.2,0.6-0.4,1-0.9,1.3c-0.4,0.3-1,0.5-1.6,0.5c-0.8,0-1.5-0.3-2-0.8s-0.7-1.2-0.7-2.1
		c0-1,0.2-1.7,0.7-2.2c0.5-0.5,1.1-0.8,1.9-0.8c0.8,0,1.4,0.3,1.9,0.8c0.5,0.5,0.7,1.2,0.7,2.2c0,0.1,0,0.1,0,0.3h-4.2
		c0,0.6,0.2,1.1,0.5,1.4c0.3,0.3,0.7,0.5,1.2,0.5c0.4,0,0.7-0.1,0.9-0.3C154.1,39.8,154.3,39.5,154.4,39.1z M151.3,37.5h3.2
		c0-0.5-0.2-0.8-0.4-1.1c-0.3-0.4-0.7-0.6-1.2-0.6c-0.4,0-0.8,0.1-1.1,0.4C151.5,36.6,151.3,37,151.3,37.5z"/>
	<path class="st2" d="M156.5,41.4l0.9,0.1c0,0.3,0.1,0.5,0.3,0.6c0.2,0.2,0.6,0.3,1,0.3c0.4,0,0.8-0.1,1-0.3
		c0.2-0.2,0.4-0.4,0.5-0.7c0-0.2,0.1-0.6,0.1-1.2c-0.4,0.5-0.9,0.7-1.6,0.7c-0.8,0-1.4-0.3-1.8-0.8c-0.4-0.6-0.6-1.2-0.6-2
		c0-0.5,0.1-1,0.3-1.5s0.5-0.8,0.8-1.1s0.8-0.4,1.3-0.4c0.7,0,1.2,0.3,1.7,0.8v-0.7h0.9v4.9c0,0.9-0.1,1.5-0.3,1.9
		c-0.2,0.4-0.5,0.7-0.9,0.9c-0.4,0.2-0.9,0.3-1.4,0.3c-0.7,0-1.2-0.2-1.6-0.5C156.7,42.4,156.5,42,156.5,41.4z M157.3,38
		c0,0.7,0.1,1.3,0.4,1.6c0.3,0.3,0.7,0.5,1.1,0.5c0.4,0,0.8-0.2,1.1-0.5c0.3-0.3,0.4-0.9,0.4-1.6c0-0.7-0.2-1.2-0.5-1.6
		c-0.3-0.4-0.7-0.5-1.1-0.5c-0.4,0-0.8,0.2-1.1,0.5C157.4,36.8,157.3,37.3,157.3,38z"/>
	<path class="st2" d="M162.7,34.2v-1.1h1v1.1H162.7z M162.7,40.9v-5.7h1v5.7H162.7z"/>
	<path class="st2" d="M164.8,38.1c0-1,0.3-1.8,0.9-2.3c0.5-0.4,1.1-0.6,1.8-0.6c0.8,0,1.4,0.3,1.9,0.8s0.7,1.2,0.7,2.1
		c0,0.7-0.1,1.3-0.3,1.7s-0.5,0.7-1,1s-0.9,0.3-1.4,0.3c-0.8,0-1.4-0.3-1.9-0.8S164.8,39,164.8,38.1z M165.8,38.1
		c0,0.7,0.2,1.3,0.5,1.6c0.3,0.4,0.7,0.5,1.2,0.5c0.5,0,0.9-0.2,1.2-0.5c0.3-0.4,0.5-0.9,0.5-1.7c0-0.7-0.2-1.2-0.5-1.6
		c-0.3-0.4-0.7-0.5-1.2-0.5c-0.5,0-0.9,0.2-1.2,0.5C165.9,36.8,165.8,37.3,165.8,38.1z"/>
	<path class="st2" d="M171.2,40.9v-5.7h0.9V36c0.4-0.6,1-0.9,1.8-0.9c0.3,0,0.7,0.1,0.9,0.2c0.3,0.1,0.5,0.3,0.6,0.5
		c0.1,0.2,0.2,0.4,0.3,0.7c0,0.2,0.1,0.5,0.1,0.9v3.5h-1v-3.4c0-0.4,0-0.7-0.1-0.9c-0.1-0.2-0.2-0.3-0.4-0.5
		c-0.2-0.1-0.4-0.2-0.7-0.2c-0.4,0-0.8,0.1-1.1,0.4s-0.4,0.8-0.4,1.5v3.1H171.2z"/>
	<path class="st2" d="M181,40.2c-0.4,0.3-0.7,0.5-1,0.6c-0.3,0.1-0.7,0.2-1.1,0.2c-0.6,0-1.1-0.2-1.4-0.5c-0.3-0.3-0.5-0.7-0.5-1.2
		c0-0.3,0.1-0.5,0.2-0.8s0.3-0.4,0.5-0.6c0.2-0.1,0.4-0.2,0.7-0.3c0.2,0,0.5-0.1,0.9-0.1c0.8-0.1,1.3-0.2,1.7-0.3c0-0.1,0-0.2,0-0.3
		c0-0.4-0.1-0.7-0.3-0.8c-0.2-0.2-0.6-0.3-1.1-0.3c-0.5,0-0.8,0.1-1,0.2s-0.4,0.4-0.5,0.8l-0.9-0.1c0.1-0.4,0.2-0.7,0.4-1
		c0.2-0.2,0.5-0.4,0.8-0.6c0.4-0.1,0.8-0.2,1.3-0.2c0.5,0,0.9,0.1,1.2,0.2c0.3,0.1,0.5,0.3,0.7,0.4c0.1,0.2,0.2,0.4,0.3,0.7
		c0,0.2,0,0.5,0,0.9v1.3c0,0.9,0,1.5,0.1,1.7c0,0.2,0.1,0.5,0.2,0.7h-1C181.1,40.7,181,40.4,181,40.2z M180.9,38
		c-0.3,0.1-0.9,0.3-1.6,0.4c-0.4,0.1-0.7,0.1-0.8,0.2s-0.3,0.2-0.4,0.3c-0.1,0.1-0.1,0.3-0.1,0.5c0,0.3,0.1,0.5,0.3,0.6
		c0.2,0.2,0.5,0.3,0.8,0.3c0.4,0,0.7-0.1,1-0.2c0.3-0.2,0.5-0.4,0.6-0.7c0.1-0.2,0.2-0.5,0.2-1V38z"/>
	<path class="st2" d="M183.3,40.9v-7.8h1v7.8H183.3z"/>
	<path class="st2" d="M92.5,54v-7.8h2.7c0.6,0,1.1,0,1.4,0.1c0.4,0.1,0.8,0.3,1.1,0.6c0.4,0.3,0.7,0.8,0.9,1.3
		c0.2,0.5,0.3,1.2,0.3,1.9c0,0.6-0.1,1.1-0.2,1.6s-0.3,0.8-0.5,1.1c-0.2,0.3-0.5,0.5-0.7,0.7s-0.6,0.3-0.9,0.4
		c-0.4,0.1-0.8,0.1-1.3,0.1H92.5z M93.5,53.1h1.7c0.5,0,0.9,0,1.2-0.1s0.5-0.2,0.7-0.4c0.2-0.2,0.4-0.6,0.6-1
		c0.1-0.4,0.2-0.9,0.2-1.5c0-0.8-0.1-1.4-0.4-1.9c-0.3-0.4-0.6-0.7-1-0.9c-0.3-0.1-0.7-0.2-1.3-0.2h-1.6V53.1z"/>
	<path class="st2" d="M104.1,52.2l1,0.1c-0.2,0.6-0.4,1-0.9,1.3c-0.4,0.3-1,0.5-1.6,0.5c-0.8,0-1.5-0.3-2-0.8s-0.7-1.2-0.7-2.1
		c0-1,0.2-1.7,0.7-2.2c0.5-0.5,1.1-0.8,1.9-0.8c0.8,0,1.4,0.3,1.9,0.8c0.5,0.5,0.7,1.2,0.7,2.2c0,0.1,0,0.1,0,0.3h-4.2
		c0,0.6,0.2,1.1,0.5,1.4s0.7,0.5,1.2,0.5c0.4,0,0.7-0.1,0.9-0.3C103.8,52.8,104,52.6,104.1,52.2z M101,50.6h3.2
		c0-0.5-0.2-0.8-0.4-1.1c-0.3-0.4-0.7-0.6-1.2-0.6c-0.4,0-0.8,0.1-1.1,0.4C101.2,49.7,101,50.1,101,50.6z"/>
	<path class="st2" d="M107.9,54l-2.2-5.7h1l1.2,3.4c0.1,0.4,0.3,0.7,0.4,1.1c0.1-0.3,0.2-0.7,0.4-1.1l1.3-3.5h1l-2.1,5.7H107.9z"/>
	<path class="st2" d="M115.6,52.2l1,0.1c-0.2,0.6-0.4,1-0.9,1.3c-0.4,0.3-1,0.5-1.6,0.5c-0.8,0-1.5-0.3-2-0.8
		c-0.5-0.5-0.7-1.2-0.7-2.1c0-1,0.2-1.7,0.7-2.2c0.5-0.5,1.1-0.8,1.9-0.8c0.8,0,1.4,0.3,1.9,0.8s0.7,1.2,0.7,2.2c0,0.1,0,0.1,0,0.3
		h-4.2c0,0.6,0.2,1.1,0.5,1.4s0.7,0.5,1.2,0.5c0.4,0,0.7-0.1,0.9-0.3C115.3,52.8,115.5,52.6,115.6,52.2z M112.5,50.6h3.2
		c0-0.5-0.2-0.8-0.4-1.1c-0.3-0.4-0.7-0.6-1.2-0.6c-0.4,0-0.8,0.1-1.1,0.4C112.7,49.7,112.5,50.1,112.5,50.6z"/>
	<path class="st2" d="M117.8,54v-7.8h1V54H117.8z"/>
	<path class="st2" d="M119.9,51.1c0-1,0.3-1.8,0.9-2.3c0.5-0.4,1.1-0.6,1.8-0.6c0.8,0,1.4,0.3,1.9,0.8c0.5,0.5,0.7,1.2,0.7,2.1
		c0,0.7-0.1,1.3-0.3,1.7s-0.5,0.7-1,1s-0.9,0.3-1.4,0.3c-0.8,0-1.4-0.3-1.9-0.8S119.9,52.1,119.9,51.1z M120.9,51.1
		c0,0.7,0.2,1.3,0.5,1.6c0.3,0.4,0.7,0.5,1.2,0.5c0.5,0,0.9-0.2,1.2-0.5c0.3-0.4,0.5-0.9,0.5-1.7c0-0.7-0.2-1.2-0.5-1.6
		c-0.3-0.4-0.7-0.5-1.2-0.5c-0.5,0-0.9,0.2-1.2,0.5C121,49.9,120.9,50.4,120.9,51.1z"/>
	<path class="st2" d="M126.3,56.1v-7.8h0.9v0.7c0.2-0.3,0.4-0.5,0.7-0.6c0.3-0.1,0.6-0.2,0.9-0.2c0.5,0,0.9,0.1,1.3,0.4
		s0.6,0.6,0.8,1.1c0.2,0.5,0.3,0.9,0.3,1.5c0,0.6-0.1,1.1-0.3,1.6c-0.2,0.5-0.5,0.8-0.9,1.1c-0.4,0.2-0.8,0.4-1.2,0.4
		c-0.3,0-0.6-0.1-0.9-0.2c-0.3-0.1-0.5-0.3-0.6-0.5v2.8H126.3z M127.2,51.2c0,0.7,0.1,1.3,0.4,1.6s0.7,0.5,1.1,0.5
		c0.4,0,0.8-0.2,1.1-0.5c0.3-0.4,0.5-0.9,0.5-1.7c0-0.7-0.1-1.3-0.4-1.6c-0.3-0.4-0.7-0.5-1.1-0.5c-0.4,0-0.8,0.2-1.1,0.6
		C127.3,49.9,127.2,50.4,127.2,51.2z"/>
	<path class="st2" d="M132.4,54v-5.7h0.9v0.8c0.2-0.3,0.4-0.5,0.7-0.7c0.3-0.2,0.6-0.3,1-0.3c0.4,0,0.8,0.1,1,0.3
		c0.3,0.2,0.5,0.4,0.6,0.7c0.4-0.7,1-1,1.7-1c0.6,0,1,0.2,1.3,0.5c0.3,0.3,0.5,0.8,0.5,1.4V54h-1v-3.6c0-0.4,0-0.7-0.1-0.8
		c-0.1-0.2-0.2-0.3-0.3-0.4c-0.2-0.1-0.4-0.2-0.6-0.2c-0.4,0-0.7,0.1-1,0.4c-0.3,0.3-0.4,0.7-0.4,1.3V54h-1v-3.7
		c0-0.4-0.1-0.7-0.2-1c-0.2-0.2-0.4-0.3-0.8-0.3c-0.3,0-0.5,0.1-0.7,0.2c-0.2,0.1-0.4,0.3-0.5,0.6c-0.1,0.3-0.2,0.7-0.2,1.2V54
		H132.4z"/>
	<path class="st2" d="M145.3,52.2l1,0.1c-0.2,0.6-0.4,1-0.9,1.3c-0.4,0.3-1,0.5-1.6,0.5c-0.8,0-1.5-0.3-2-0.8
		c-0.5-0.5-0.7-1.2-0.7-2.1c0-1,0.2-1.7,0.7-2.2c0.5-0.5,1.1-0.8,1.9-0.8c0.8,0,1.4,0.3,1.9,0.8c0.5,0.5,0.7,1.2,0.7,2.2
		c0,0.1,0,0.1,0,0.3h-4.2c0,0.6,0.2,1.1,0.5,1.4c0.3,0.3,0.7,0.5,1.2,0.5c0.4,0,0.7-0.1,0.9-0.3C145,52.8,145.2,52.6,145.3,52.2z
		 M142.2,50.6h3.2c0-0.5-0.2-0.8-0.4-1.1c-0.3-0.4-0.7-0.6-1.2-0.6c-0.4,0-0.8,0.1-1.1,0.4C142.4,49.7,142.2,50.1,142.2,50.6z"/>
	<path class="st2" d="M147.5,54v-5.7h0.9v0.8c0.4-0.6,1-0.9,1.8-0.9c0.3,0,0.7,0.1,0.9,0.2c0.3,0.1,0.5,0.3,0.6,0.5
		c0.1,0.2,0.2,0.4,0.3,0.7c0,0.2,0.1,0.5,0.1,0.9V54h-1v-3.4c0-0.4,0-0.7-0.1-0.9c-0.1-0.2-0.2-0.3-0.4-0.5
		c-0.2-0.1-0.4-0.2-0.7-0.2c-0.4,0-0.8,0.1-1.1,0.4c-0.3,0.3-0.4,0.8-0.4,1.5V54H147.5z"/>
	<path class="st2" d="M155.7,53.1l0.1,0.8c-0.3,0.1-0.5,0.1-0.7,0.1c-0.3,0-0.6-0.1-0.8-0.2c-0.2-0.1-0.3-0.3-0.4-0.4
		c-0.1-0.2-0.1-0.6-0.1-1.1v-3.3h-0.7v-0.7h0.7v-1.4l1-0.6v2h1v0.7h-1v3.3c0,0.3,0,0.4,0.1,0.5s0.1,0.1,0.2,0.2
		c0.1,0,0.2,0.1,0.3,0.1C155.4,53.2,155.5,53.1,155.7,53.1z"/>
	<path class="st2" d="M159.8,54v-7.8h5.3v0.9h-4.2v2.4h3.7v0.9h-3.7V54H159.8z"/>
	<path class="st2" d="M170,54v-0.8c-0.4,0.6-1,1-1.8,1c-0.3,0-0.6-0.1-0.9-0.2s-0.5-0.3-0.6-0.5c-0.1-0.2-0.2-0.4-0.3-0.7
		c0-0.2-0.1-0.5-0.1-0.9v-3.5h1v3.1c0,0.5,0,0.8,0.1,1c0.1,0.3,0.2,0.5,0.4,0.6s0.4,0.2,0.7,0.2c0.3,0,0.6-0.1,0.8-0.2
		c0.3-0.1,0.4-0.3,0.5-0.6s0.2-0.6,0.2-1.1v-3h1V54H170z"/>
	<path class="st2" d="M172.4,54v-5.7h0.9v0.8c0.4-0.6,1-0.9,1.8-0.9c0.3,0,0.7,0.1,0.9,0.2c0.3,0.1,0.5,0.3,0.6,0.5
		c0.1,0.2,0.2,0.4,0.3,0.7c0,0.2,0.1,0.5,0.1,0.9V54h-1v-3.4c0-0.4,0-0.7-0.1-0.9c-0.1-0.2-0.2-0.3-0.4-0.5
		c-0.2-0.1-0.4-0.2-0.7-0.2c-0.4,0-0.8,0.1-1.1,0.4s-0.4,0.8-0.4,1.5V54H172.4z"/>
	<path class="st2" d="M182.1,54v-0.7c-0.4,0.6-0.9,0.8-1.6,0.8c-0.5,0-0.9-0.1-1.2-0.4c-0.4-0.2-0.7-0.6-0.9-1s-0.3-1-0.3-1.5
		c0-0.6,0.1-1.1,0.3-1.5c0.2-0.5,0.5-0.8,0.8-1.1s0.8-0.4,1.3-0.4c0.3,0,0.6,0.1,0.9,0.2c0.3,0.1,0.5,0.3,0.6,0.6v-2.8h1V54H182.1z
		 M179.1,51.1c0,0.7,0.2,1.3,0.5,1.6c0.3,0.4,0.7,0.5,1.1,0.5c0.4,0,0.8-0.2,1.1-0.5c0.3-0.3,0.4-0.9,0.4-1.6c0-0.8-0.1-1.3-0.4-1.7
		c-0.3-0.4-0.7-0.5-1.1-0.5c-0.4,0-0.8,0.2-1.1,0.5S179.1,50.4,179.1,51.1z"/>
</g>
</svg>
