<?xml version="1.0" encoding="utf-8"?>
<!-- Generator: Adobe Illustrator 19.2.1, SVG Export Plug-In . SVG Version: 6.00 Build 0)  -->
<svg version="1.1" id="Ebene_1" xmlns="http://www.w3.org/2000/svg" xmlns:xlink="http://www.w3.org/1999/xlink" x="0px" y="0px"
	 width="200px" height="31.7px" viewBox="0 0 200 31.7" style="enable-background:new 0 0 200 31.7;" xml:space="preserve">
<style type="text/css">
	.st0{fill:#FFFFFF;}
	.st1{fill:#34AC91;}
</style>
<g>
	<g>
		<path class="st0" d="M89.5,31.1l-1.9-4.7h-9.3l-1.8,4.7h-6.3L80.3,7h5.7l10,24.1H89.5z M83,13.5l-3.1,8.3H86L83,13.5z"/>
		<path class="st0" d="M108.3,18.8c-0.3-0.1-0.5-0.1-0.7-0.1c-0.2,0-0.5,0-0.7,0c-0.7,0-1.4,0.1-1.9,0.4c-0.5,0.3-0.9,0.6-1.2,1
			c-0.3,0.4-0.5,0.8-0.7,1.3c-0.1,0.5-0.2,0.8-0.2,1.2v8.7h-5.6v-17h5.4v2.5h0.1c0.4-0.9,1-1.6,1.8-2.1c0.8-0.5,1.7-0.8,2.8-0.8
			c0.2,0,0.4,0,0.7,0c0.2,0,0.4,0.1,0.5,0.1L108.3,18.8z"/>
		<path class="st0" d="M118.1,18.3v6.5c0,0.8,0.2,1.4,0.5,1.8c0.3,0.4,0.9,0.6,1.7,0.6c0.3,0,0.6,0,0.9-0.1c0.3,0,0.6-0.1,0.8-0.2
			l0.1,4.1c-0.4,0.1-0.9,0.3-1.5,0.4c-0.6,0.1-1.2,0.2-1.8,0.2c-1.1,0-2.1-0.1-2.9-0.4c-0.8-0.3-1.4-0.7-1.9-1.2
			c-0.5-0.5-0.8-1.2-1-1.9c-0.2-0.7-0.3-1.6-0.3-2.5v-7.2h-2.7v-4.2h2.7V9.7h5.5v4.5h4v4.2H118.1z"/>
		<rect x="124.6" y="14.2" class="st0" width="5.6" height="17"/>
		<path class="st0" d="M143.6,19.2c-0.5-0.4-1-0.8-1.6-1.1c-0.6-0.3-1.3-0.4-1.9-0.4c-0.5,0-1,0.1-1.4,0.3c-0.4,0.2-0.7,0.6-0.7,1.1
			c0,0.5,0.2,0.8,0.7,1c0.5,0.2,1.3,0.4,2.4,0.7c0.6,0.1,1.3,0.3,1.9,0.6c0.6,0.3,1.2,0.6,1.8,1c0.5,0.4,0.9,0.9,1.3,1.5
			c0.3,0.6,0.5,1.3,0.5,2.1c0,1.1-0.2,2-0.6,2.7c-0.4,0.7-1,1.3-1.7,1.8c-0.7,0.5-1.5,0.8-2.3,1c-0.9,0.2-1.7,0.3-2.6,0.3
			c-1.4,0-2.7-0.2-4.1-0.7s-2.4-1.1-3.3-2l3.1-3.3c0.5,0.5,1.1,1,1.8,1.4c0.7,0.4,1.5,0.5,2.3,0.5c0.5,0,0.9-0.1,1.3-0.3
			c0.4-0.2,0.7-0.6,0.7-1.1c0-0.5-0.3-0.9-0.8-1.2c-0.5-0.2-1.4-0.5-2.6-0.8c-0.6-0.1-1.2-0.3-1.8-0.5c-0.6-0.2-1.1-0.5-1.6-0.9
			c-0.5-0.4-0.8-0.9-1.1-1.4c-0.3-0.6-0.4-1.2-0.4-2c0-1,0.2-1.9,0.6-2.6c0.4-0.7,1-1.3,1.7-1.8c0.7-0.5,1.4-0.8,2.3-1
			c0.8-0.2,1.7-0.3,2.5-0.3c1.3,0,2.5,0.2,3.7,0.6c1.2,0.4,2.2,1,3.1,1.8L143.6,19.2z"/>
		<path class="st0" d="M148.9,16.5c1-1,2.2-1.7,3.5-2.1c1.3-0.5,2.7-0.7,4.1-0.7c1.4,0,2.6,0.2,3.6,0.5c1,0.4,1.8,0.9,2.4,1.6
			c0.6,0.7,1.1,1.7,1.3,2.8c0.3,1.1,0.4,2.5,0.4,4v8.6h-5.1v-1.8H159c-0.4,0.7-1.1,1.2-2,1.6c-0.9,0.4-1.8,0.6-2.8,0.6
			c-0.7,0-1.4-0.1-2.1-0.3c-0.7-0.2-1.4-0.5-2-0.9c-0.6-0.4-1.1-1-1.5-1.6c-0.4-0.7-0.6-1.5-0.6-2.5c0-1.2,0.3-2.2,1-3
			c0.7-0.7,1.5-1.3,2.6-1.7c1.1-0.4,2.2-0.7,3.5-0.8c1.3-0.1,2.6-0.2,3.8-0.2v-0.3c0-0.8-0.3-1.5-0.9-1.9c-0.6-0.4-1.3-0.6-2.2-0.6
			c-0.8,0-1.6,0.2-2.3,0.5c-0.7,0.3-1.4,0.7-1.9,1.2L148.9,16.5z M159.1,23.7h-0.7c-0.6,0-1.2,0-1.9,0.1c-0.6,0.1-1.2,0.2-1.7,0.3
			c-0.5,0.2-0.9,0.4-1.2,0.7c-0.3,0.3-0.5,0.7-0.5,1.2c0,0.3,0.1,0.6,0.2,0.8c0.1,0.2,0.3,0.4,0.6,0.5c0.2,0.1,0.5,0.2,0.8,0.3
			c0.3,0.1,0.6,0.1,0.9,0.1c1.1,0,2-0.3,2.6-0.9c0.6-0.6,0.9-1.5,0.9-2.5V23.7z"/>
		<path class="st0" d="M178,31.1v-9.3c0-0.5,0-0.9-0.1-1.4c-0.1-0.4-0.2-0.8-0.4-1.1c-0.2-0.3-0.4-0.6-0.8-0.8
			c-0.3-0.2-0.7-0.3-1.2-0.3c-0.5,0-0.9,0.1-1.3,0.3c-0.4,0.2-0.7,0.5-0.9,0.8c-0.3,0.3-0.4,0.7-0.6,1.2c-0.1,0.4-0.2,0.9-0.2,1.4
			v9.2h-5.6v-17h5.4v2.4h0.1c0.2-0.4,0.5-0.7,0.8-1.1c0.3-0.4,0.7-0.7,1.2-0.9c0.4-0.2,0.9-0.5,1.4-0.6c0.5-0.2,1.1-0.2,1.7-0.2
			c1.1,0,2.1,0.2,2.9,0.6c0.8,0.4,1.4,0.9,1.9,1.6c0.5,0.6,0.8,1.4,1.1,2.2c0.2,0.8,0.3,1.7,0.3,2.5v10.5H178z"/>
		<path class="st0" d="M196.9,19.2c-0.5-0.4-1-0.8-1.6-1.1c-0.6-0.3-1.3-0.4-1.9-0.4c-0.5,0-1,0.1-1.4,0.3c-0.4,0.2-0.7,0.6-0.7,1.1
			c0,0.5,0.2,0.8,0.7,1c0.5,0.2,1.3,0.4,2.4,0.7c0.6,0.1,1.3,0.3,1.9,0.6c0.6,0.3,1.2,0.6,1.8,1c0.5,0.4,0.9,0.9,1.3,1.5
			c0.3,0.6,0.5,1.3,0.5,2.1c0,1.1-0.2,2-0.6,2.7c-0.4,0.7-1,1.3-1.7,1.8c-0.7,0.5-1.5,0.8-2.3,1c-0.9,0.2-1.7,0.3-2.6,0.3
			c-1.4,0-2.7-0.2-4.1-0.7s-2.4-1.1-3.3-2l3.1-3.3c0.5,0.5,1.1,1,1.8,1.4c0.7,0.4,1.5,0.5,2.3,0.5c0.5,0,0.9-0.1,1.3-0.3
			c0.4-0.2,0.7-0.6,0.7-1.1c0-0.5-0.3-0.9-0.8-1.2c-0.5-0.2-1.4-0.5-2.6-0.8c-0.6-0.1-1.2-0.3-1.8-0.5c-0.6-0.2-1.1-0.5-1.6-0.9
			c-0.5-0.4-0.8-0.9-1.1-1.4c-0.3-0.6-0.4-1.2-0.4-2c0-1,0.2-1.9,0.6-2.6c0.4-0.7,1-1.3,1.7-1.8c0.7-0.5,1.4-0.8,2.3-1
			c0.8-0.2,1.7-0.3,2.5-0.3c1.3,0,2.5,0.2,3.7,0.6c1.2,0.4,2.2,1,3.1,1.8L196.9,19.2z"/>
	</g>
	<g>
		<g>
			<path class="st1" d="M13.7,31.1v-2.2h-0.1c-0.5,0.9-1.3,1.5-2.3,2c-1,0.5-2.1,0.7-3.2,0.7c-1.3,0-2.4-0.3-3.4-0.7
				c-1-0.5-1.8-1.2-2.5-2C1.4,28,0.9,27.1,0.5,26C0.2,24.9,0,23.8,0,22.6c0-1.2,0.2-2.3,0.6-3.4c0.4-1.1,0.9-2,1.6-2.8
				c0.7-0.8,1.5-1.5,2.5-1.9c1-0.5,2.1-0.7,3.3-0.7c1.2,0,2.3,0.2,3.2,0.7c0.9,0.5,1.5,1,2,1.6h0.1V5.4h5.6v25.8H13.7z M13.5,22.6
				c0-0.5-0.1-1.1-0.3-1.6c-0.2-0.5-0.5-1-0.8-1.4c-0.4-0.4-0.8-0.7-1.3-1c-0.5-0.2-1.1-0.4-1.7-0.4c-0.7,0-1.2,0.1-1.7,0.4
				c-0.5,0.3-0.9,0.6-1.3,1C6.1,20,5.8,20.5,5.6,21c-0.2,0.5-0.3,1.1-0.3,1.6c0,0.5,0.1,1.1,0.3,1.6c0.2,0.5,0.4,1,0.8,1.4
				c0.3,0.4,0.8,0.7,1.3,1C8.2,26.9,8.7,27,9.4,27c0.6,0,1.2-0.1,1.7-0.4c0.5-0.2,0.9-0.6,1.3-1c0.4-0.4,0.6-0.9,0.8-1.4
				C13.4,23.7,13.5,23.2,13.5,22.6z"/>
			<path class="st1" d="M21.7,16.5c1-1,2.2-1.7,3.5-2.1c1.3-0.5,2.7-0.7,4.1-0.7c1.4,0,2.6,0.2,3.6,0.5c1,0.4,1.8,0.9,2.4,1.6
				c0.6,0.7,1.1,1.7,1.3,2.8c0.3,1.1,0.4,2.5,0.4,4v8.6H32v-1.8h-0.1c-0.4,0.7-1.1,1.2-2,1.6c-0.9,0.4-1.8,0.6-2.8,0.6
				c-0.7,0-1.4-0.1-2.1-0.3c-0.7-0.2-1.4-0.5-2-0.9c-0.6-0.4-1.1-1-1.5-1.6c-0.4-0.7-0.6-1.5-0.6-2.5c0-1.2,0.3-2.2,1-3
				c0.7-0.7,1.5-1.3,2.6-1.7c1.1-0.4,2.2-0.7,3.5-0.8c1.3-0.1,2.6-0.2,3.8-0.2v-0.3c0-0.8-0.3-1.5-0.9-1.9c-0.6-0.4-1.3-0.6-2.2-0.6
				c-0.8,0-1.6,0.2-2.3,0.5c-0.7,0.3-1.4,0.7-1.9,1.2L21.7,16.5z M32,23.7h-0.7c-0.6,0-1.2,0-1.9,0.1c-0.6,0.1-1.2,0.2-1.7,0.3
				c-0.5,0.2-0.9,0.4-1.2,0.7c-0.3,0.3-0.5,0.7-0.5,1.2c0,0.3,0.1,0.6,0.2,0.8c0.1,0.2,0.3,0.4,0.6,0.5c0.2,0.1,0.5,0.2,0.8,0.3
				c0.3,0.1,0.6,0.1,0.9,0.1c1.1,0,2-0.3,2.6-0.9c0.6-0.6,0.9-1.5,0.9-2.5V23.7z"/>
			<path class="st1" d="M46.3,18.3v6.5c0,0.8,0.2,1.4,0.5,1.8c0.3,0.4,0.9,0.6,1.7,0.6c0.3,0,0.6,0,0.9-0.1c0.3,0,0.6-0.1,0.8-0.2
				l0.1,4.1c-0.4,0.1-0.9,0.3-1.5,0.4c-0.6,0.1-1.2,0.2-1.8,0.2c-1.1,0-2.1-0.1-2.9-0.4c-0.8-0.3-1.4-0.7-1.9-1.2
				c-0.5-0.5-0.8-1.2-1-1.9c-0.2-0.7-0.3-1.6-0.3-2.5v-7.2h-2.7v-4.2h2.7V9.7h5.5v4.5h4v4.2H46.3z"/>
			<path class="st1" d="M53,16.5c1-1,2.2-1.7,3.5-2.1c1.3-0.5,2.7-0.7,4.1-0.7c1.4,0,2.6,0.2,3.6,0.5c1,0.4,1.8,0.9,2.4,1.6
				c0.6,0.7,1.1,1.7,1.3,2.8c0.3,1.1,0.4,2.5,0.4,4v8.6h-5.1v-1.8h-0.1c-0.4,0.7-1.1,1.2-2,1.6c-0.9,0.4-1.8,0.6-2.8,0.6
				c-0.7,0-1.4-0.1-2.1-0.3c-0.7-0.2-1.4-0.5-2-0.9c-0.6-0.4-1.1-1-1.5-1.6c-0.4-0.7-0.6-1.5-0.6-2.5c0-1.2,0.3-2.2,1-3
				c0.7-0.7,1.5-1.3,2.6-1.7c1.1-0.4,2.2-0.7,3.5-0.8c1.3-0.1,2.6-0.2,3.8-0.2v-0.3c0-0.8-0.3-1.5-0.9-1.9c-0.6-0.4-1.3-0.6-2.2-0.6
				c-0.8,0-1.6,0.2-2.3,0.5c-0.7,0.3-1.4,0.7-1.9,1.2L53,16.5z M63.3,23.7h-0.7c-0.6,0-1.2,0-1.9,0.1c-0.6,0.1-1.2,0.2-1.7,0.3
				c-0.5,0.2-0.9,0.4-1.2,0.7c-0.3,0.3-0.5,0.7-0.5,1.2c0,0.3,0.1,0.6,0.2,0.8c0.1,0.2,0.3,0.4,0.6,0.5c0.2,0.1,0.5,0.2,0.8,0.3
				c0.3,0.1,0.6,0.1,0.9,0.1c1.1,0,2-0.3,2.6-0.9c0.6-0.6,0.9-1.5,0.9-2.5V23.7z"/>
		</g>
		<g>
			<path class="st1" d="M134.2,0h-5.2c-0.5,0-0.9,0.4-0.9,0.9v5.2c0,0.5,0.4,0.9,0.9,0.9h5.2c0.5,0,0.9-0.4,0.9-0.9V0.9
				C135.1,0.4,134.7,0,134.2,0z"/>
			<path class="st1" d="M127.2,6.2V4.1h-2.4c-0.5,0-0.9,0.4-0.9,0.9v5.2c0,0.5,0.4,0.9,0.9,0.9h5.2c0.5,0,0.9-0.4,0.9-0.9V7.9h-2.1
				C128,7.9,127.2,7.1,127.2,6.2z"/>
		</g>
	</g>
</g>
</svg>
